<svg xmlns="http://www.w3.org/2000/svg" viewBox="0 0 359.28 359.29"><defs><style>.cls-1{fill:#f29ea0;stroke:#020202;}.cls-1,.cls-2,.cls-4,.cls-5,.cls-6,.cls-7,.cls-8{stroke-miterlimit:10;}.cls-2{fill:#efcfd4;stroke:#060707;}.cls-3,.cls-4{fill:#fff;}.cls-4{stroke:#fff;}.cls-5{fill:#f5f09e;}.cls-5,.cls-6,.cls-7,.cls-8{stroke:#632947;stroke-width:0.78px;}.cls-6{fill:none;}.cls-7,.cls-9{fill:#f08a8f;}.cls-8{fill:#f8c7c6;}.cls-9{fill-rule:evenodd;}</style></defs><title>LogoCamiSweets</title><g id="Capa_4" data-name="Capa 4"><path class="cls-1" d="M393.48,208.85c0,7.73-9.72,14.74-10.7,22.2-1,7.63,6.59,16.9,4.65,24.19s-13.2,11.66-16.09,18.64,2,18-1.83,24.57-15.76,7.81-20.39,13.83-2.72,17.88-8.1,23.25-17.22,3.46-23.26,8.12S310.53,360.2,303.93,364s-17.5-1.11-24.57,1.82S268.13,380,260.72,381.94s-16.56-5.64-24.2-4.64c-7.45,1-14.46,10.71-22.18,10.71s-14.72-9.74-22.19-10.71c-7.62-1-16.9,6.59-24.19,4.64s-11.65-13.2-18.64-16.09-18,2-24.58-1.82-7.79-15.76-13.82-20.38S93,340.92,87.67,335.53s-3.47-17.2-8.11-23.25S63,305.06,59.17,298.45s1.12-17.5-1.82-24.57-14.12-11.22-16.09-18.64,5.65-16.57,4.64-24.19c-1-7.46-10.7-14.47-10.7-22.2s9.73-14.72,10.7-22.18c1-7.62-6.59-16.9-4.64-24.18s13.2-11.66,16.09-18.65-2-18,1.82-24.57,15.77-7.8,20.39-13.82,2.73-17.88,8.11-23.26,17.21-3.46,23.25-8.11,7.23-16.57,13.84-20.38,17.49,1.11,24.56-1.81S160.55,37.77,168,35.78s16.57,5.65,24.19,4.65c7.47-1,14.47-10.72,22.19-10.72s14.73,9.73,22.18,10.72c7.64,1,16.91-6.6,24.2-4.65S272.38,49,279.36,51.89s18-2,24.57,1.81,7.8,15.76,13.83,20.38,17.87,2.73,23.26,8.11,3.46,17.21,8.1,23.26,16.58,7.22,20.39,13.83-1.11,17.49,1.83,24.56,14.11,11.24,16.09,18.65-5.65,16.56-4.65,24.18C383.76,194.13,393.48,201.14,393.48,208.85Z" transform="translate(-34.7 -29.21)"/><path class="cls-2" d="M373.19,208.86A158.85,158.85,0,1,1,214.34,50,158.85,158.85,0,0,1,373.19,208.86Z" transform="translate(-34.7 -29.21)"/><path class="cls-3" d="M213.36,361.43h0c-2,0-4.07-.07-6.11-.17a1.8,1.8,0,1,1,.18-3.6c2,.08,4,.13,6,.15a1.81,1.81,0,0,1,0,3.62Zm9.64-.21a1.81,1.81,0,0,1-.1-3.62c2-.1,4-.25,6-.45a1.82,1.82,0,0,1,.32,3.62c-2,.18-4.06.34-6.08.45Zm-25.28-.71h-.2c-2-.23-4.06-.48-6.06-.8a1.81,1.81,0,0,1,.54-3.58c2,.3,4,.57,5.92.78a1.81,1.81,0,0,1-.2,3.61Zm40.87-1a1.8,1.8,0,0,1-.29-3.58c2-.31,3.95-.67,5.87-1.05a1.81,1.81,0,1,1,.71,3.55c-2,.4-4,.76-6,1.07ZM182.25,358a1.27,1.27,0,0,1-.39-.05c-2-.43-4-.9-5.93-1.41a1.79,1.79,0,0,1-1.3-2.19,1.81,1.81,0,0,1,2.2-1.31c1.91.5,3.87,1,5.8,1.38a1.81,1.81,0,0,1-.38,3.58Zm71.67-1.66a1.81,1.81,0,0,1-.48-3.55c1.92-.52,3.85-1.07,5.74-1.65a1.81,1.81,0,1,1,1.07,3.45c-1.95.6-3.92,1.17-5.86,1.69A1.89,1.89,0,0,1,253.92,356.32Zm-86.8-2.46a1.87,1.87,0,0,1-.57-.08c-1.93-.64-3.87-1.33-5.75-2a1.81,1.81,0,0,1,1.26-3.4c1.85.68,3.74,1.35,5.63,2a1.81,1.81,0,0,1-.57,3.53Zm101.73-2.37a1.81,1.81,0,0,1-.65-3.5c1.87-.7,3.72-1.46,5.55-2.24a1.8,1.8,0,0,1,2.36,1,1.78,1.78,0,0,1-.94,2.36c-1.87.81-3.77,1.58-5.66,2.3A1.74,1.74,0,0,1,268.85,351.49ZM152.52,348.2a1.69,1.69,0,0,1-.75-.16c-1.84-.82-3.69-1.7-5.51-2.59a1.82,1.82,0,0,1,1.62-3.25c1.77.88,3.58,1.74,5.38,2.55a1.8,1.8,0,0,1-.74,3.45Zm130.69-3.06a1.8,1.8,0,0,1-.82-3.41c1.77-.9,3.54-1.85,5.27-2.81a1.81,1.81,0,0,1,1.77,3.16c-1.78,1-3.6,2-5.41,2.87A1.66,1.66,0,0,1,283.21,345.14Zm-144.62-4.07a1.71,1.71,0,0,1-.9-.24c-1.74-1-3.5-2.06-5.22-3.15a1.83,1.83,0,0,1-.56-2.51,1.81,1.81,0,0,1,2.5-.55c1.69,1.06,3.39,2.1,5.09,3.07a1.85,1.85,0,0,1,.66,2.49A1.81,1.81,0,0,1,138.59,341.07Zm158.24-3.72a1.81,1.81,0,0,1-1-3.33c1.65-1.08,3.32-2.2,4.94-3.33a1.81,1.81,0,1,1,2.08,3c-1.66,1.17-3.37,2.32-5.06,3.41A1.89,1.89,0,0,1,296.83,337.35Zm-171.38-4.8a1.86,1.86,0,0,1-1.06-.35c-1.64-1.19-3.27-2.43-4.86-3.68a1.81,1.81,0,0,1,2.24-2.84c1.55,1.22,3.15,2.42,4.75,3.59a1.82,1.82,0,0,1-1.07,3.28Zm184.11-4.36a1.81,1.81,0,0,1-1.13-3.23c1.54-1.23,3.08-2.5,4.59-3.81a1.8,1.8,0,1,1,2.36,2.73c-1.53,1.34-3.11,2.65-4.68,3.92A1.83,1.83,0,0,1,309.56,328.19Zm-196.3-5.48a1.79,1.79,0,0,1-1.2-.46c-1.5-1.34-3-2.75-4.46-4.17a1.79,1.79,0,0,1,0-2.55,1.81,1.81,0,0,1,2.56,0c1.44,1.4,2.9,2.75,4.36,4.07a1.82,1.82,0,0,1,.15,2.56A1.84,1.84,0,0,1,113.26,322.71Zm208-4.93a1.84,1.84,0,0,1-1.29-.54,1.79,1.79,0,0,1,0-2.54c1.42-1.42,2.82-2.85,4.16-4.28a1.81,1.81,0,1,1,2.64,2.48c-1.37,1.46-2.81,2.93-4.26,4.36A1.85,1.85,0,0,1,321.28,317.78Zm-219.14-6.11a1.82,1.82,0,0,1-1.35-.6c-1.35-1.5-2.72-3.06-4-4.59a1.83,1.83,0,0,1,.22-2.55,1.81,1.81,0,0,1,2.55.22c1.26,1.5,2.59,3,3.92,4.49a1.81,1.81,0,0,1-.11,2.56A1.85,1.85,0,0,1,102.14,311.67Zm229.73-5.44a1.74,1.74,0,0,1-1.14-.41,1.79,1.79,0,0,1-.24-2.55c1.27-1.53,2.51-3.1,3.7-4.66a1.81,1.81,0,1,1,2.87,2.19c-1.21,1.6-2.49,3.22-3.79,4.77A1.8,1.8,0,0,1,331.87,306.23ZM92.2,299.54a1.84,1.84,0,0,1-1.46-.73c-1.2-1.64-2.39-3.32-3.52-5a1.79,1.79,0,0,1,.47-2.5,1.82,1.82,0,0,1,2.52.47q1.67,2.48,3.44,4.88a1.82,1.82,0,0,1-.38,2.53A1.76,1.76,0,0,1,92.2,299.54Zm249-5.88a1.85,1.85,0,0,1-1-.3,1.81,1.81,0,0,1-.5-2.52c1.09-1.64,2.18-3.34,3.2-5a1.81,1.81,0,0,1,2.49-.61,1.83,1.83,0,0,1,.6,2.49c-1,1.72-2.16,3.44-3.28,5.15A1.84,1.84,0,0,1,341.23,293.66Zm-257.69-7.2a1.8,1.8,0,0,1-1.55-.9c-1-1.76-2-3.54-3-5.32a1.81,1.81,0,1,1,3.19-1.71c.93,1.73,1.92,3.49,2.93,5.2a1.81,1.81,0,0,1-.64,2.47A1.75,1.75,0,0,1,83.54,286.46Zm265.7-6.24a1.85,1.85,0,0,1-.84-.22,1.82,1.82,0,0,1-.77-2.45c.92-1.73,1.82-3.53,2.67-5.31a1.81,1.81,0,0,1,3.27,1.55c-.87,1.85-1.8,3.67-2.74,5.45A1.8,1.8,0,0,1,349.24,280.22ZM76.3,272.53a1.78,1.78,0,0,1-1.65-1c-.85-1.85-1.66-3.74-2.43-5.61a1.81,1.81,0,1,1,3.35-1.37c.75,1.83,1.55,3.67,2.37,5.47a1.82,1.82,0,0,1-.9,2.41A1.85,1.85,0,0,1,76.3,272.53ZM355.8,266a1.74,1.74,0,0,1-.66-.14,1.79,1.79,0,0,1-1-2.35c.73-1.83,1.44-3.7,2.1-5.57a1.81,1.81,0,0,1,3.41,1.22c-.69,1.92-1.41,3.83-2.16,5.7A1.82,1.82,0,0,1,355.8,266ZM70.52,257.94a1.81,1.81,0,0,1-1.72-1.24c-.64-1.9-1.26-3.87-1.83-5.82a1.81,1.81,0,1,1,3.47-1c.57,1.92,1.16,3.82,1.79,5.7a1.81,1.81,0,0,1-1.14,2.28A1.63,1.63,0,0,1,70.52,257.94Zm290.37-6.76a1.68,1.68,0,0,1-.5-.07,1.81,1.81,0,0,1-1.24-2.24c.54-1.89,1.05-3.82,1.52-5.76a1.81,1.81,0,0,1,3.52.85c-.49,2-1,4-1.57,5.9A1.79,1.79,0,0,1,360.89,251.18Zm-294.6-8.34a1.8,1.8,0,0,1-1.76-1.41c-.45-2-.86-4-1.23-6a1.81,1.81,0,1,1,3.57-.64c.35,1.93.75,3.89,1.18,5.82a1.8,1.8,0,0,1-1.37,2.17A1.29,1.29,0,0,1,66.29,242.84Zm298.11-6.93-.32,0a1.82,1.82,0,0,1-1.47-2.1c.35-1.93.65-3.92.92-5.88a1.81,1.81,0,0,1,3.59.49c-.27,2-.58,4-.93,6A1.83,1.83,0,0,1,364.4,235.91ZM63.66,227.4a1.81,1.81,0,0,1-1.8-1.6c-.24-2-.45-4.07-.59-6.08a1.8,1.8,0,1,1,3.59-.28c.16,2,.36,4,.59,5.94a1.8,1.8,0,0,1-1.59,2Zm302.66-7.05h-.13a1.81,1.81,0,0,1-1.68-1.94c.14-2,.25-4,.3-5.94a1.83,1.83,0,0,1,1.81-1.76h.06a1.8,1.8,0,0,1,1.75,1.87c-.06,2-.17,4.08-.31,6.1A1.81,1.81,0,0,1,366.32,220.35Zm-303.7-8.6A1.82,1.82,0,0,1,60.8,210c0-.8,0-1.6,0-2.41,0-1.23,0-2.47.05-3.69a1.8,1.8,0,0,1,1.8-1.77h0A1.81,1.81,0,0,1,64.45,204c0,1.21,0,2.41,0,3.62,0,.8,0,1.57,0,2.35a1.8,1.8,0,0,1-1.79,1.83Zm304-7.07a1.83,1.83,0,0,1-1.82-1.75c-.05-2-.15-4-.29-6a1.81,1.81,0,0,1,3.62-.25c.14,2,.24,4.05.3,6.09a1.81,1.81,0,0,1-1.76,1.87ZM63.17,196.1a.41.41,0,0,1-.15,0,1.79,1.79,0,0,1-1.65-2c.18-2,.39-4.07.65-6.07a1.81,1.81,0,0,1,3.59.46c-.26,1.95-.46,4-.64,5.91A1.82,1.82,0,0,1,63.17,196.1Zm302.18-7a1.82,1.82,0,0,1-1.79-1.57c-.26-1.94-.56-3.93-.9-5.89a1.81,1.81,0,0,1,1.47-2.09,1.79,1.79,0,0,1,2.09,1.47c.35,2,.66,4,.93,6a1.8,1.8,0,0,1-1.55,2A1.06,1.06,0,0,1,365.35,189.06Zm-300-8.48a2,2,0,0,1-.34,0,1.82,1.82,0,0,1-1.44-2.12c.38-2,.82-4,1.27-6a1.81,1.81,0,0,1,3.53.82c-.46,1.94-.87,3.89-1.25,5.83A1.82,1.82,0,0,1,65.33,180.58Zm297.15-6.93a1.8,1.8,0,0,1-1.76-1.39c-.46-1.92-1-3.85-1.51-5.75a1.81,1.81,0,1,1,3.48-1c.56,2,1.07,3.94,1.55,5.9a1.81,1.81,0,0,1-1.34,2.19A1.93,1.93,0,0,1,362.48,173.65Zm-293.4-8.3a1.59,1.59,0,0,1-.53-.08,1.79,1.79,0,0,1-1.2-2.25c.58-2,1.21-3.9,1.87-5.8a1.81,1.81,0,1,1,3.42,1.18c-.64,1.85-1.26,3.77-1.84,5.66A1.78,1.78,0,0,1,69.08,165.35ZM358,158.62a1.82,1.82,0,0,1-1.71-1.21c-.65-1.86-1.36-3.75-2.1-5.57a1.83,1.83,0,0,1,1-2.36,1.79,1.79,0,0,1,2.35,1c.75,1.87,1.48,3.8,2.16,5.72a1.8,1.8,0,0,1-1.11,2.31A1.55,1.55,0,0,1,358,158.62Zm-283.64-8a1.68,1.68,0,0,1-.7-.14,1.8,1.8,0,0,1-1-2.37c.77-1.86,1.6-3.72,2.46-5.57a1.81,1.81,0,0,1,3.28,1.53c-.84,1.81-1.65,3.63-2.41,5.43A1.79,1.79,0,0,1,74.38,150.62ZM352,144.12a1.81,1.81,0,0,1-1.64-1c-.86-1.79-1.77-3.6-2.67-5.33a1.81,1.81,0,0,1,3.19-1.7c.94,1.79,1.87,3.62,2.74,5.48a1.8,1.8,0,0,1-.85,2.41A1.93,1.93,0,0,1,352,144.12Zm-270.87-7.6a1.89,1.89,0,0,1-.86-.22,1.8,1.8,0,0,1-.72-2.47c1-1.78,2-3.54,3-5.27a1.81,1.81,0,0,1,3.11,1.86q-1.53,2.54-3,5.16A1.81,1.81,0,0,1,81.16,136.52Zm263.39-6.21a1.78,1.78,0,0,1-1.54-.86c-1-1.68-2.1-3.37-3.21-5a1.81,1.81,0,1,1,3-2c1.13,1.69,2.23,3.43,3.27,5.14a1.79,1.79,0,0,1-.59,2.48A1.74,1.74,0,0,1,344.55,130.31ZM89.38,123.19a1.84,1.84,0,0,1-1-.32,1.78,1.78,0,0,1-.46-2.51c1.15-1.67,2.33-3.34,3.55-5A1.83,1.83,0,0,1,94,115a1.8,1.8,0,0,1,.36,2.53c-1.19,1.58-2.35,3.22-3.48,4.85A1.79,1.79,0,0,1,89.38,123.19Zm246.32-5.83a1.83,1.83,0,0,1-1.44-.7q-1.8-2.39-3.7-4.68a1.82,1.82,0,0,1,2.8-2.32c1.28,1.57,2.56,3.19,3.78,4.8a1.81,1.81,0,0,1-.34,2.54A1.88,1.88,0,0,1,335.7,117.36Zm-236.78-6.6a1.8,1.8,0,0,1-1.38-3c1.33-1.56,2.7-3.08,4-4.56a1.81,1.81,0,0,1,2.66,2.45c-1.33,1.45-2.66,2.94-4,4.45A1.77,1.77,0,0,1,98.92,110.76Zm226.66-5.37a1.78,1.78,0,0,1-1.32-.57c-1.35-1.44-2.75-2.87-4.17-4.27a1.82,1.82,0,0,1,0-2.56,1.8,1.8,0,0,1,2.55,0c1.45,1.43,2.9,2.89,4.27,4.36a1.81,1.81,0,0,1-1.32,3Zm-215.89-6a1.84,1.84,0,0,1-1.31-.56,1.81,1.81,0,0,1,.06-2.56c1.46-1.4,3-2.79,4.49-4.13a1.81,1.81,0,1,1,2.4,2.71c-1.49,1.32-3,2.68-4.39,4A1.81,1.81,0,0,1,109.69,99.38Zm204.6-4.86a1.76,1.76,0,0,1-1.18-.44c-1.51-1.3-3-2.59-4.58-3.81a1.81,1.81,0,1,1,2.25-2.83c1.58,1.26,3.15,2.58,4.7,3.9a1.83,1.83,0,0,1,.17,2.56A1.81,1.81,0,0,1,314.29,94.52ZM121.57,89.15a1.78,1.78,0,0,1-1.43-.71,1.81,1.81,0,0,1,.32-2.54c1.61-1.24,3.26-2.47,4.9-3.64a1.81,1.81,0,1,1,2.1,2.95c-1.6,1.14-3.21,2.34-4.78,3.57A1.9,1.9,0,0,1,121.57,89.15Zm180.37-4.27a1.75,1.75,0,0,1-1-.34c-1.61-1.13-3.28-2.25-4.94-3.33a1.8,1.8,0,1,1,2-3c1.7,1.09,3.41,2.24,5.07,3.4a1.82,1.82,0,0,1-1.05,3.3Zm-167.5-4.69a1.83,1.83,0,0,1-1.54-.86,1.81,1.81,0,0,1,.59-2.49c1.73-1.08,3.5-2.13,5.24-3.12a1.81,1.81,0,1,1,1.79,3.14c-1.7,1-3.42,2-5.12,3A1.76,1.76,0,0,1,134.44,80.19Zm154.24-3.64a1.77,1.77,0,0,1-.88-.24c-1.73-1-3.5-1.91-5.26-2.79a1.81,1.81,0,0,1,1.65-3.23c1.79.91,3.6,1.87,5.38,2.86a1.82,1.82,0,0,1-.89,3.4Zm-140.5-4a1.83,1.83,0,0,1-1.63-1,1.8,1.8,0,0,1,.84-2.42c1.82-.89,3.69-1.75,5.54-2.56a1.8,1.8,0,1,1,1.46,3.3c-1.81.8-3.64,1.65-5.43,2.52A1.78,1.78,0,0,1,148.18,72.6Zm126.46-3a2,2,0,0,1-.71-.14c-1.82-.79-3.67-1.54-5.51-2.25a1.79,1.79,0,0,1-1-2.33,1.81,1.81,0,0,1,2.34-1c1.87.72,3.77,1.49,5.64,2.3a1.81,1.81,0,0,1-.72,3.47Zm-112-3.16A1.81,1.81,0,0,1,162,63c1.91-.69,3.85-1.36,5.79-2a1.81,1.81,0,1,1,1.1,3.44c-1.89.61-3.8,1.26-5.64,1.94A2,2,0,0,1,162.64,66.47ZM260,64.19a1.64,1.64,0,0,1-.54-.08c-1.88-.58-3.82-1.13-5.72-1.65a1.81,1.81,0,0,1,.93-3.5c2,.52,3.93,1.1,5.86,1.7a1.79,1.79,0,0,1,1.18,2.26A1.76,1.76,0,0,1,260,64.19Zm-82.33-2.32a1.81,1.81,0,0,1-.43-3.56c2-.5,4-1,5.94-1.36a1.79,1.79,0,0,1,2.14,1.4,1.81,1.81,0,0,1-1.4,2.14c-1.94.41-3.9.85-5.8,1.33A1.77,1.77,0,0,1,177.63,61.87Zm67.15-1.55a2.21,2.21,0,0,1-.37,0c-1.94-.39-3.91-.75-5.86-1.06a1.81,1.81,0,0,1,.57-3.57c2,.32,4,.68,6,1.08a1.81,1.81,0,0,1-.35,3.59ZM193,58.86a1.81,1.81,0,0,1-.25-3.6c2-.28,4-.53,6.06-.75a1.82,1.82,0,0,1,.36,3.62c-2,.19-4,.43-5.91.71A1.14,1.14,0,0,1,193,58.86ZM229.28,58h-.18c-2-.19-4-.34-5.95-.45a1.81,1.81,0,0,1,.2-3.61c2,.11,4.07.27,6.09.45a1.81,1.81,0,0,1-.16,3.62Zm-20.66-.58a1.81,1.81,0,0,1-.08-3.62c2-.08,4.07-.12,6.12-.12a1.82,1.82,0,0,1,0,3.63c-2,0-4,0-6,.11Z" transform="translate(-34.7 -29.21)"/><path class="cls-4" d="M79.24,242.84a1,1,0,0,0,.86.46,12,12,0,0,0,2-.64,13.09,13.09,0,0,0,1,1.94c.25.35.82.76,1.15.69.75-.16.65-.86.47-1.43s-.52-1.33-.81-2.07a20.28,20.28,0,0,0,2-1.36,1,1,0,0,0,.16-1,1,1,0,0,0-.87-.41,18.32,18.32,0,0,0-2.2.82,6.6,6.6,0,0,0-.88-1.42,1.48,1.48,0,0,0-1.12-.28c-.18,0-.38.59-.35.9a10.42,10.42,0,0,0,.42,1.69,13.06,13.06,0,0,0-1.64,1.12A1,1,0,0,0,79.24,242.84Z" transform="translate(-34.7 -29.21)"/><path class="cls-4" d="M299.06,155.09a1.06,1.06,0,0,0,.87.46,13.33,13.33,0,0,0,1.95-.64,13.09,13.09,0,0,0,1,1.94c.25.35.82.75,1.15.69.75-.16.66-.86.47-1.43s-.51-1.33-.81-2.07a20.85,20.85,0,0,0,2-1.36,1,1,0,0,0,.16-1,1,1,0,0,0-.86-.41,17.8,17.8,0,0,0-2.21.82,6.6,6.6,0,0,0-.88-1.42,1.41,1.41,0,0,0-1.11-.28c-.18,0-.39.59-.36.89a10,10,0,0,0,.43,1.69,14.41,14.41,0,0,0-1.65,1.13A1,1,0,0,0,299.06,155.09Z" transform="translate(-34.7 -29.21)"/><path class="cls-4" d="M131.55,320a1.06,1.06,0,0,0,.87.46,13.33,13.33,0,0,0,2-.64,13.09,13.09,0,0,0,1,1.94c.25.35.82.75,1.15.68.75-.15.65-.85.47-1.42s-.52-1.33-.81-2.07a20.85,20.85,0,0,0,2-1.36,1,1,0,0,0,.16-1,1,1,0,0,0-.86-.41,17.8,17.8,0,0,0-2.21.82,6.6,6.6,0,0,0-.88-1.42,1.41,1.41,0,0,0-1.11-.28c-.18,0-.39.59-.36.89a10.23,10.23,0,0,0,.43,1.69,13.23,13.23,0,0,0-1.65,1.13A1,1,0,0,0,131.55,320Z" transform="translate(-34.7 -29.21)"/><path class="cls-4" d="M344.09,200.9a1,1,0,0,0,.86.46,12.65,12.65,0,0,0,2-.64,12.75,12.75,0,0,0,1,1.95c.26.34.82.75,1.16.68.74-.15.65-.86.46-1.43s-.51-1.33-.8-2.07a18.69,18.69,0,0,0,2-1.36,1,1,0,0,0,.15-1,1,1,0,0,0-.86-.41,18.53,18.53,0,0,0-2.2.83,6.45,6.45,0,0,0-.89-1.43,1.49,1.49,0,0,0-1.11-.28c-.18,0-.39.6-.36.9a11.33,11.33,0,0,0,.43,1.69,13.06,13.06,0,0,0-1.64,1.12A1,1,0,0,0,344.09,200.9Z" transform="translate(-34.7 -29.21)"/></g><g id="Capa_5" data-name="Capa 5"><path class="cls-5" d="M143.45,247.2s44.69-20.91,88.81-33.55,60.95-12.54,60.95-48.94c0,0,28.58,3.33,26.67,34.38C316.16,259.43,172.24,271.26,143.45,247.2Z" transform="translate(-34.7 -29.21)"/><path class="cls-5" d="M246.81,108.87S299,128.65,292.69,177.5c-5.82,45.12-25.49,80.26-120.45,74.47C172.24,252,285.43,207,246.81,108.87Z" transform="translate(-34.7 -29.21)"/><path class="cls-5" d="M246.81,108.87s29.65,41,17.44,77.23c-9.33,27.64-63.94,80-120.8,61.1C143.45,247.2,236.57,212.8,246.81,108.87Z" transform="translate(-34.7 -29.21)"/><path class="cls-5" d="M193.82,163.87c51.45-5.19,53-55,53-55h0a121.11,121.11,0,0,0-35.23-28.53c-9.53,29.33-51.64,38.43-74.2,58.15-16.14,14.11-17.65,39.09-17.21,52.16C133.09,176.37,160.27,167.25,193.82,163.87Z" transform="translate(-34.7 -29.21)"/><path class="cls-6" d="M120.15,190.53c5.52-14,14.52-48,52.88-57,40-9.35,38.59-53.22,38.59-53.22" transform="translate(-34.7 -29.21)"/><path class="cls-6" d="M214.18,81.71s25.92,64-46.56,86.27" transform="translate(-34.7 -29.21)"/><path class="cls-5" d="M245.32,107.81s3.77,37.16-33.69,51.3-61.39,1.28-91.48,27.56c-25.74,22.49,4.78,67.43,24.95,60.19C149.25,245.37,268.37,198.16,245.32,107.81Z" transform="translate(-34.7 -29.21)"/><polygon class="cls-7" points="195 184.57 203.62 174.25 212.23 184.57 198.3 297.96 188.01 297.96 195 184.57"/><polygon class="cls-7" points="229.44 184.57 238.08 174.25 246.69 184.57 218.86 297.96 208.58 297.96 229.44 184.57"/><polygon class="cls-7" points="264.02 184.57 272.63 174.25 281.24 184.57 239.16 297.96 229.13 297.96 264.02 184.57"/><polygon class="cls-7" points="167.45 297.96 177.73 297.96 177.73 184.57 169.12 174.25 160.5 184.57 167.45 297.96"/><polygon class="cls-7" points="143.25 184.57 134.63 174.25 126.02 184.57 146.89 297.96 157.17 297.96 143.25 184.57"/><polygon class="cls-7" points="108.75 184.57 100.13 174.25 91.45 184.57 126.33 297.96 136.61 297.96 108.75 184.57"/><polygon class="cls-8" points="188.01 297.96 177.73 297.96 177.73 184.57 186.35 174.25 194.96 184.57 188.01 297.96"/><polygon class="cls-8" points="212.22 184.57 220.83 174.25 229.44 184.57 208.58 297.96 198.3 297.96 212.22 184.57"/><polygon class="cls-8" points="246.72 184.57 255.34 174.25 264.02 184.57 229.13 297.96 218.86 297.96 246.72 184.57"/><polygon class="cls-8" points="160.46 184.57 151.85 174.25 143.24 184.57 157.17 297.96 167.45 297.96 160.46 184.57"/><polygon class="cls-8" points="126.02 184.57 117.39 174.25 108.78 184.57 136.61 297.96 146.89 297.96 126.02 184.57"/><polygon class="cls-8" points="91.45 184.57 82.84 174.25 74.22 184.57 116.31 297.96 126.33 297.96 91.45 184.57"/><path class="cls-9" d="M162.42,183.17c-1.07-5.9-9.07-4.3-10.28,0s1.88,6.94,6.24,8.53a14.15,14.15,0,0,1,6.36,4.32,13.46,13.46,0,0,1,4.36-6.25c3.54-3,5.51-6.55,2.86-10.17S161.45,177.82,162.42,183.17Z" transform="translate(-34.7 -29.21)"/><path class="cls-9" d="M305.18,186.94c-1.06-5.89-9.07-4.3-10.27,0s1.87,6.94,6.23,8.52a14.3,14.3,0,0,1,6.36,4.33,13.48,13.48,0,0,1,4.35-6.25c3.54-3,5.52-6.55,2.88-10.17S304.22,181.6,305.18,186.94Z" transform="translate(-34.7 -29.21)"/><path class="cls-9" d="M218,171.27c2-5.66-5.8-8.2-9-5s-1.76,7,1.26,10.49a14.13,14.13,0,0,1,3.42,6.88,13.57,13.57,0,0,1,6.87-3.31c4.55-.89,8-3,7.49-7.46S219.76,166.14,218,171.27Z" transform="translate(-34.7 -29.21)"/><path class="cls-9" d="M199.62,132.92c1.76-5.08-5.22-7.36-8.07-4.51s-1.58,6.26,1.14,9.43a12.8,12.8,0,0,1,3.08,6.18,12.15,12.15,0,0,1,6.17-3c4.09-.79,7.2-2.71,6.73-6.71S201.21,128.31,199.62,132.92Z" transform="translate(-34.7 -29.21)"/><path class="cls-9" d="M247.67,182.53c.21-6-7.95-6.13-10-2.16s.36,7.18,4.29,9.65a14.22,14.22,0,0,1,5.3,5.57,13.51,13.51,0,0,1,5.58-5.19c4.09-2.18,6.77-5.22,5-9.32S247.85,177.1,247.67,182.53Z" transform="translate(-34.7 -29.21)"/><path class="cls-9" d="M158.93,150.32c-2-5.66-9.62-2.84-10.15,1.6s2.93,6.57,7.48,7.46a14.18,14.18,0,0,1,6.94,3.29,13.56,13.56,0,0,1,3.35-6.85c3-3.52,4.43-7.32,1.27-10.49S157.15,145.19,158.93,150.32Z" transform="translate(-34.7 -29.21)"/><path class="cls-9" d="M229.81,120.09c.77-5.93-7.34-6.84-9.79-3.09s-.31,7.19,3.36,10a14.29,14.29,0,0,1,4.76,6,13.5,13.5,0,0,1,6.05-4.64c4.27-1.79,7.23-4.58,5.8-8.82S230.51,114.71,229.81,120.09Z" transform="translate(-34.7 -29.21)"/><path class="cls-9" d="M279.44,156.83c1.09-5.89-7-7.22-9.62-3.61s-.7,7.16,2.83,10.17a14.23,14.23,0,0,1,4.42,6.3,13.57,13.57,0,0,1,6.29-4.32c4.36-1.56,7.46-4.17,6.27-8.49S280.43,151.49,279.44,156.83Z" transform="translate(-34.7 -29.21)"/></g><g id="Layer_1" data-name="Layer 1"><path class="cls-4" d="M299.06,294.05a1.06,1.06,0,0,0,.87.46,13.33,13.33,0,0,0,1.95-.64,13.09,13.09,0,0,0,1,1.94c.25.35.82.75,1.15.68.75-.15.66-.85.47-1.42s-.51-1.33-.81-2.07a20.85,20.85,0,0,0,2-1.36,1,1,0,0,0,.16-.95,1,1,0,0,0-.86-.41,17.8,17.8,0,0,0-2.21.82,6.6,6.6,0,0,0-.88-1.42,1.41,1.41,0,0,0-1.11-.28c-.18,0-.39.59-.36.89a10.23,10.23,0,0,0,.43,1.69,13.23,13.23,0,0,0-1.65,1.13A1,1,0,0,0,299.06,294.05Z" transform="translate(-34.7 -29.21)"/><path class="cls-4" d="M117,123.83c-.11-.35-.5-.62-.76-.92a10.06,10.06,0,0,0-1,1,3.78,3.78,0,0,0-.32.91,3.76,3.76,0,0,0-1,.12,8.33,8.33,0,0,0-1.11.79,4.4,4.4,0,0,0,1,1,3.58,3.58,0,0,0,1.2.22,3.46,3.46,0,0,1,.26.45c.24.61-.09,1.67,1,1.65s.73-1.06,1-1.68a2.63,2.63,0,0,1,.24-.4,2,2,0,0,0,.57-.18c.38-.28.72-.6,1.08-.9-.33-.31-.62-.81-1-.88C117.37,124.84,117.18,124.44,117,123.83Z" transform="translate(-34.7 -29.21)"/></g></svg>